<svg xmlns="http://www.w3.org/2000/svg" xmlns:xlink="http://www.w3.org/1999/xlink" width="500" zoomAndPan="magnify" viewBox="0 0 375 374.999991" height="500" preserveAspectRatio="xMidYMid meet" version="1.0"><defs><clipPath id="1d58e45b7c"><path d="M 15.121094 15.121094 L 360.121094 15.121094 L 360.121094 360.121094 L 15.121094 360.121094 Z M 15.121094 15.121094 " clip-rule="nonzero"/></clipPath></defs><path fill="#ffe66d" d="M 187.621094 149.386719 C 166.5625 149.386719 149.386719 166.5625 149.386719 187.621094 C 149.386719 208.679688 166.5625 225.855469 187.621094 225.855469 C 208.679688 225.855469 225.855469 208.679688 225.855469 187.621094 C 225.855469 166.5625 208.679688 149.386719 187.621094 149.386719 Z M 187.621094 149.386719 " fill-opacity="1" fill-rule="nonzero"/><path fill="#ffe66d" d="M 238.996094 93.828125 L 136.246094 93.828125 C 112.945312 93.828125 93.828125 112.796875 93.828125 136.246094 L 93.828125 238.996094 C 93.828125 262.296875 112.796875 281.414062 136.246094 281.414062 L 238.996094 281.414062 C 262.296875 281.414062 281.414062 262.445312 281.414062 238.996094 L 281.414062 136.246094 C 281.265625 112.796875 262.296875 93.828125 238.996094 93.828125 Z M 187.621094 245.121094 C 155.808594 245.121094 129.972656 219.285156 129.972656 187.472656 C 129.972656 155.660156 155.808594 129.820312 187.621094 129.820312 C 219.433594 129.820312 245.269531 155.660156 245.269531 187.472656 C 245.121094 219.285156 219.285156 245.121094 187.621094 245.121094 Z M 249.304688 139.53125 C 241.6875 139.53125 235.414062 133.257812 235.414062 125.640625 C 235.414062 118.023438 241.6875 111.75 249.304688 111.75 C 256.917969 111.75 263.191406 118.023438 263.191406 125.640625 C 263.191406 133.40625 257.070312 139.53125 249.304688 139.53125 Z M 249.304688 139.53125 " fill-opacity="1" fill-rule="nonzero"/><g clip-path="url(#1d58e45b7c)"><path fill="#ffe66d" d="M 187.621094 15.121094 C 92.335938 15.121094 15.121094 92.335938 15.121094 187.621094 C 15.121094 282.90625 92.335938 360.121094 187.621094 360.121094 C 282.90625 360.121094 360.121094 282.90625 360.121094 187.621094 C 359.972656 92.335938 282.757812 15.121094 187.621094 15.121094 Z M 300.679688 238.996094 C 300.679688 273.050781 272.898438 300.828125 238.847656 300.828125 L 136.246094 300.828125 C 102.191406 300.828125 74.414062 273.050781 74.414062 238.996094 L 74.414062 136.246094 C 74.414062 102.191406 102.191406 74.414062 136.246094 74.414062 L 238.996094 74.414062 C 273.050781 74.414062 300.828125 102.191406 300.828125 136.246094 L 300.828125 238.996094 Z M 300.679688 238.996094 " fill-opacity="1" fill-rule="nonzero"/></g></svg>